<svg width="24" height="24" viewBox="0 0 24 24" fill="none" xmlns="http://www.w3.org/2000/svg">
<path d="M18.625 16.3258C17.7019 15.2516 17.2692 13.8871 17.2692 12.7839L17.2115 10.0839C17.2115 7.61613 15.5673 5.35161 13.2308 4.59677C13.1731 3.66774 12.4519 3 11.5 3C10.5769 3 9.85577 3.66774 9.76923 4.59677C7.43269 5.38065 5.78846 7.61613 5.78846 10.0839L5.73077 12.7839C5.73077 13.9161 5.29808 15.2516 4.375 16.3258C4.20192 16.529 4 16.8194 4 17.2258C4 18.1548 4.40385 18.6774 5.44231 18.6774H9.76923V19.2581C9.76923 20.2161 10.5481 21 11.5 21C12.4519 21 13.2308 20.2161 13.2308 19.2581V18.6774H17.5577C18.5962 18.6774 19 18.1548 19 17.2258C19 16.8194 18.7981 16.529 18.625 16.3258ZM12.0769 19.2581C12.0769 19.6065 11.7596 19.8387 11.5 19.8387C11.2404 19.8387 10.9231 19.6065 10.9231 19.2581V18.6774H12.0769V19.2581ZM17.5577 17.5161H5.44231C5.06731 17.5161 5.09615 17.1968 5.26923 17.0806C6.56731 15.8323 6.88462 13.8581 6.88462 12.8129L6.94231 10.1129C6.94231 8.05161 8.47115 6.10645 10.4904 5.6129C10.75 5.55484 10.9231 5.32258 10.9231 5.06129V4.77097C10.9231 4.42258 11.1538 4.19032 11.5 4.19032C11.8462 4.19032 12.0769 4.42258 12.0769 4.77097V5.06129C12.0769 5.32258 12.25 5.55484 12.5096 5.6129C14.5288 6.10645 16.0577 8.05161 16.0577 10.1129L16.1154 12.8129C16.1154 13.8581 16.4615 15.8323 17.7308 17.0806C17.9038 17.1968 17.9327 17.5161 17.5577 17.5161Z" fill="#828487"/>
</svg>
