<svg width="113" height="113" viewBox="0 0 113 58" fill="none" xmlns="http://www.w3.org/2000/svg">
  <g clip-path="url(#clip0_1_1804)">
  <path d="M47.104 41V32.136H49.344V41H47.104ZM48.24 31.08C47.44 31.08 46.864 30.504 46.864 29.768C46.864 29.032 47.44 28.456 48.24 28.456C49.024 28.456 49.616 29.032 49.616 29.768C49.616 30.504 49.024 31.08 48.24 31.08ZM62.4531 35.384C62.4531 38.744 59.9091 41.112 56.7411 41.112C53.5891 41.112 51.0131 38.744 51.0131 35.384C51.0131 32.04 53.5891 29.672 56.7411 29.672C59.9251 29.672 62.4531 32.04 62.4531 35.384ZM53.3171 35.384C53.3171 37.656 54.7091 39.112 56.7411 39.112C58.7571 39.112 60.1491 37.656 60.1491 35.384C60.1491 33.112 58.7571 31.688 56.7411 31.688C54.7091 31.688 53.3171 33.112 53.3171 35.384ZM66.3596 36.584V41H64.1196V32.136H66.3596V33.512C66.9196 32.6 67.8476 32.008 69.0796 32.008V34.36H68.4876C67.1596 34.36 66.3596 34.872 66.3596 36.584ZM70.0124 36.536C70.0124 33.768 71.8044 31.992 74.0764 31.992C75.2444 31.992 76.3644 32.536 76.9724 33.368V29.16H79.2444V41H76.9724V39.688C76.4444 40.504 75.4524 41.144 74.0604 41.144C71.8044 41.144 70.0124 39.304 70.0124 36.536ZM76.9884 36.568C76.9884 34.888 75.8684 33.96 74.6364 33.96C73.4364 33.96 72.3004 34.856 72.3004 36.536C72.3004 38.216 73.4364 39.176 74.6364 39.176C75.8684 39.176 76.9884 38.248 76.9884 36.568ZM85.2401 33.832C84.1681 33.832 83.3201 34.52 83.1441 35.736H87.3521C87.3201 34.568 86.3921 33.832 85.2401 33.832ZM89.4481 38.216C88.9681 39.848 87.4961 41.144 85.3041 41.144C82.7281 41.144 80.8561 39.352 80.8561 36.568C80.8561 33.768 82.6801 31.992 85.3041 31.992C87.8641 31.992 89.6721 33.736 89.6721 36.376C89.6721 36.664 89.6561 36.952 89.6081 37.24H83.1281C83.2401 38.552 84.1361 39.288 85.2561 39.288C86.2161 39.288 86.7441 38.808 87.0321 38.216H89.4481ZM93.5471 36.584V41H91.3071V32.136H93.5471V33.512C94.1071 32.6 95.0351 32.008 96.2671 32.008V34.36H95.6751C94.3471 34.36 93.5471 34.872 93.5471 36.584Z" fill="#231F20"/>
  <g clip-path="url(#clip1_1_1804)">
  <path d="M36.1842 5.27246H6.31161C4.95944 5.27246 3.86328 6.76854 3.86328 8.61405V49.3854C3.86328 51.2309 4.95944 52.727 6.31161 52.727H36.1842C37.5364 52.727 38.6325 51.2309 38.6325 49.3854V8.61405C38.6325 6.76854 37.5364 5.27246 36.1842 5.27246Z" fill="#231F20"/>
  <path d="M8.07764 21.0905V14.1393C8.07764 13.3132 8.31972 12.5209 8.75063 11.9367C9.18155 11.3526 9.76599 11.0244 10.3754 11.0244H15.4529" stroke="white" stroke-width="1.5" stroke-miterlimit="10"/>
  <path d="M15.4529 46.9753H10.3754C10.0737 46.9754 9.7749 46.8947 9.49613 46.7376C9.21736 46.5806 8.96405 46.3504 8.75067 46.0601C8.5373 45.7699 8.36804 45.4253 8.25256 45.046C8.13707 44.6667 8.07764 44.2602 8.07764 43.8497V36.9092" stroke="white" stroke-width="1.5" stroke-miterlimit="10"/>
  <path d="M34.4183 36.9092V43.8828C34.4183 44.289 34.3597 44.6912 34.246 45.0665C34.1322 45.4417 33.9655 45.7827 33.7554 46.0698C33.5452 46.357 33.2957 46.5848 33.0212 46.7402C32.7466 46.8955 32.4524 46.9754 32.1552 46.9753H27.043" stroke="white" stroke-width="1.5" stroke-miterlimit="10"/>
  <path d="M27.043 11.0244H32.131C32.7376 11.0244 33.3194 11.3526 33.7483 11.9367C34.1773 12.5209 34.4183 13.3132 34.4183 14.1393V21.0905" stroke="white" stroke-width="1.5" stroke-miterlimit="10"/>
  <path d="M19.2334 17.791V26.7575" stroke="#F15F34" stroke-width="1.2" stroke-linecap="round" stroke-linejoin="round"/>
  <path d="M23.1382 17.7949V25.0694C23.1382 25.0694 23.1796 28.8761 22.291 29.8629C22.291 29.8629 20.4525 32.5699 21.248 36.6863C21.248 36.6863 22.1262 42.185 26.96 42.2133V17.7949" stroke="#F15F34" stroke-width="1.2" stroke-linecap="round" stroke-linejoin="round"/>
  <path d="M15.5771 17.7949V26.2115C15.5771 26.2115 15.6082 28.5381 16.4443 29.6802C17.2804 30.8223 17.3742 31.6678 17.4363 32.2601C17.4984 32.8523 17.4363 42.2133 17.4363 42.2133" stroke="#F15F34" stroke-width="1.2" stroke-linecap="round" stroke-linejoin="round"/>
  </g>
  </g>
  <defs>
  <clipPath id="clip0_1_1804">
  <rect width="113" height="58" fill="white"/>
  </clipPath>
  <clipPath id="clip1_1_1804">
  <rect width="34.7692" height="47.4545" fill="white" transform="translate(3.86328 5.27246)"/>
  </clipPath>
  </defs>
  </svg>
  