<svg
        width="32"
        height="32"
        viewBox="0 0 32 32"
        fill="none"
        xmlns="http://www.w3.org/2000/svg"
      >
        <path
          fill-rule="evenodd"
          clip-rule="evenodd"
          d="M16.5024 30C19.9453 29.9959 23.2666 28.7259 25.8341 26.4318V30H29.3335V21.5907C29.3592 21.5324 29.3843 21.474 29.4088 21.4157L30.5 20.3249V6.08345C30.5 4.19521 28.9713 2.00014 27.0006 2.00014H25.8341V5.56837C21.1845 1.40605 14.3417 0.824607 9.05671 4.14278C3.7717 7.46095 1.32096 13.8773 3.0479 19.8746C4.77484 25.8719 10.2624 30.0016 16.5024 30ZM27.0006 3.16681C28.2569 3.16681 29.3336 4.77097 29.3336 6.08346V19.8419L28.1671 21.0086V28.8334H27.0006V3.16681ZM25.8341 7.19179C23.4077 4.62596 20.0335 3.17056 16.5024 3.16681C10.6489 3.16689 5.53752 7.12907 4.07717 12.7984C2.61681 18.4676 5.17775 24.4068 10.3025 27.2357C15.4272 30.0646 21.8165 29.066 25.8341 24.8084V7.19179Z"
          fill="#828487"
        />
        <path
          fill-rule="evenodd"
          clip-rule="evenodd"
          d="M9.53467 18.8527C9.53628 16.9706 11.0631 15.4461 12.9448 15.4478C14.8258 15.4513 16.3489 16.9772 16.3492 18.8585C16.3476 20.7406 14.8208 22.265 12.939 22.2634C11.0572 22.2618 9.53306 20.7347 9.53467 18.8527ZM10.8722 19.7146C11.2198 20.5524 12.0379 21.098 12.9448 21.0968C14.1795 21.0939 15.1798 20.0935 15.1826 18.8585C15.1838 17.9516 14.6383 17.1333 13.8007 16.7856C12.9631 16.438 11.9986 16.6296 11.3574 17.2709C10.7161 17.9122 10.5246 18.8769 10.8722 19.7146Z"
          fill="#828487"
        />
        <path
          d="M18.8177 18.1919C18.7383 17.8813 18.4232 17.693 18.1121 17.7703C17.8011 17.8475 17.6106 18.1614 17.6857 18.473C17.9496 19.7451 17.571 21.0656 16.6732 22.0045C16.5216 22.151 16.4608 22.3679 16.5141 22.5718C16.5675 22.7757 16.7268 22.935 16.9307 22.9884C17.1346 23.0418 17.3514 22.981 17.4979 22.8293C18.6815 21.5992 19.1762 19.861 18.8177 18.1919Z"
          fill="#828487"
        />
        <path
          fill-rule="evenodd"
          clip-rule="evenodd"
          d="M23.9134 7.42116L22.7469 6.2545C22.2127 5.71591 21.4409 5.48679 20.6994 5.64668C19.9579 5.80658 19.349 6.33343 19.0842 7.04433C16.4531 6.27004 13.6143 6.69923 11.3296 8.21674C9.04483 9.73426 7.54812 12.1847 7.24103 14.9105C6.06116 16.6102 5.70253 18.7483 6.26324 20.74C6.82395 22.7318 8.24532 24.3686 10.1385 25.2028C11.2011 26.5222 12.8037 27.2896 14.4976 27.29C15.042 27.2964 15.5839 27.2167 16.1033 27.0537C17.3084 26.6616 18.3718 25.9238 19.1612 24.9322C22.0758 24.0723 24.3868 21.8429 25.3513 18.9607C26.3157 16.0785 25.812 12.9069 24.002 10.4656C24.7784 9.58566 24.7396 8.25438 23.9134 7.42116ZM21.1681 6.76723C21.451 6.76691 21.7223 6.87921 21.9222 7.07932L23.0887 8.24598C23.3152 8.46898 23.4296 8.78193 23.4003 9.09846C23.3711 9.41498 23.2012 9.70163 22.9377 9.8793L22.9032 9.90089C22.7022 10.0267 22.4649 10.0817 22.229 10.0572H22.2057C22.0961 10.0436 21.9891 10.0135 21.8884 9.96797C21.8825 9.96532 21.8769 9.9621 21.8712 9.95885C21.8669 9.95638 21.8626 9.9539 21.8581 9.95163C21.7556 9.90235 21.6619 9.83674 21.5805 9.75739L20.414 8.59073C20.2083 8.38496 20.0964 8.10345 20.1049 7.81256V7.80498C20.117 7.22692 20.59 6.7652 21.1681 6.76723ZM19.2475 12.0877C19.6643 12.5035 20.3389 12.5035 20.7557 12.0877C21.1714 11.6709 21.1714 10.9961 20.7557 10.5792L19.5893 9.41258C19.1703 9.01115 18.5073 9.01827 18.097 9.42861C17.6868 9.83895 17.6797 10.502 18.081 10.9211L19.2475 12.0877ZM15.7172 25.953C13.9481 26.482 12.0376 25.8403 10.9464 24.3506L10.8542 24.2391L10.7207 24.1808C9.12679 23.5166 7.91435 22.173 7.41658 20.5193C6.9188 18.8657 7.18806 17.0759 8.15035 15.642L8.19934 15.5744C8.21866 15.5466 8.23912 15.5201 8.25958 15.4935L8.25964 15.4934C8.27189 15.4775 8.28415 15.4616 8.29616 15.4454C8.41515 15.2832 8.54267 15.1275 8.67818 14.9788L8.70443 14.9496L8.73067 14.9204C9.18744 14.4315 9.72509 14.025 10.32 13.7188C10.5096 13.6225 10.7043 13.5367 10.9032 13.4615L10.9819 13.4329C11.1569 13.3699 11.3319 13.3163 11.5121 13.2696C11.5294 13.2654 11.5466 13.2608 11.5639 13.2562L11.5639 13.2562C11.5869 13.2501 11.6099 13.244 11.6328 13.2387C11.8031 13.1984 11.9758 13.1687 12.1496 13.1448C12.1687 13.1421 12.1877 13.1389 12.2066 13.1358C12.2333 13.1313 12.26 13.1268 12.2872 13.1238C12.5054 13.0975 12.7248 13.0841 12.9445 13.0835C14.9152 13.0814 16.7496 14.0891 17.8052 15.7534L17.8845 15.8777L18.0134 15.9494C18.508 16.2236 20.8993 17.7869 19.4581 21.6287L19.4301 21.7343C19.2391 22.5854 18.8682 23.3858 18.3424 24.0816L18.2257 24.2397C17.5713 25.0398 16.7005 25.6346 15.7172 25.953ZM20.5656 21.9898C20.4685 22.4412 20.3255 22.8813 20.1387 23.3035C22.3068 22.2278 23.8851 20.2443 24.4464 17.8896C25.0077 15.535 24.494 13.0526 23.0443 11.1142C22.9518 11.1455 22.8573 11.1706 22.7615 11.1895C22.6257 11.2153 22.4879 11.2283 22.3497 11.2286H22.3346H22.3118H22.2232C22.2717 12.15 21.7464 13.0058 20.9029 13.3796C20.0593 13.7534 19.0727 13.5676 18.4228 12.9126L17.2563 11.746C16.3856 10.8734 16.3856 9.46042 17.2563 8.58782C17.5275 8.32023 17.8632 8.12731 18.2309 8.02783C17.6635 7.90034 17.0838 7.83521 16.5022 7.83358C13.0261 7.82148 9.92685 10.0209 8.79012 13.3064C8.80065 13.2986 8.81144 13.2915 8.82219 13.2844C8.83406 13.2766 8.84586 13.2689 8.85719 13.2603C8.97675 13.1728 9.09748 13.0888 9.22287 13.0089C9.24125 12.997 9.26006 12.9858 9.27891 12.9745C9.29058 12.9676 9.30226 12.9606 9.31386 12.9535C9.74157 12.6891 10.1969 12.4721 10.6716 12.3066C10.687 12.3014 10.7016 12.2959 10.716 12.2904C10.7311 12.2846 10.7459 12.279 10.7614 12.2739C10.8845 12.2325 11.0105 12.1981 11.1364 12.1636L11.1365 12.1636L11.1365 12.1636C11.217 12.142 11.2975 12.1205 11.3785 12.1012C11.4858 12.0767 11.5861 12.0551 11.7028 12.0341C11.8194 12.0131 11.9361 11.9962 12.0527 11.9811C12.0772 11.9779 12.1015 11.9746 12.1257 11.9713C12.1865 11.963 12.2471 11.9548 12.3088 11.949C12.5193 11.9291 12.731 11.9169 12.9445 11.9169C15.2622 11.9149 17.4266 13.0752 18.708 15.0068C19.3752 15.4233 21.7548 17.2118 20.8765 20.9393C20.8686 20.973 20.862 21.006 20.8555 21.039C20.8462 21.0863 20.8368 21.1336 20.8234 21.1831C20.8077 21.2416 20.787 21.3031 20.7664 21.3645C20.7532 21.4035 20.7401 21.4425 20.7283 21.4806C20.7175 21.5161 20.7068 21.5515 20.6962 21.5869C20.6565 21.7192 20.6167 21.8518 20.5656 21.9898Z"
          fill="#828487"
        />
      </svg>
